<?xml version="1.0" encoding="UTF-8"?>
<svg id="Layer_1" data-name="Layer 1" xmlns="http://www.w3.org/2000/svg" version="1.1" viewBox="0 0 252 73.3">
  <defs>
    <style>
      .cls-1 {
        fill: #000;
        stroke-width: 0px;
      }
    </style>
  </defs>
  <g>
    <path class="cls-1" d="M24.4,34.2c.8,0,1.4-.6,1.4-1.4s-.6-1.4-1.4-1.4-1.4.6-1.4,1.4.6,1.4,1.4,1.4M24.4,17.4c.8,0,1.4-.6,1.4-1.4s-.6-1.4-1.4-1.4-1.4.6-1.4,1.4.6,1.4,1.4,1.4M16,42.5c.8,0,1.4-.6,1.4-1.4s-.6-1.4-1.4-1.4-1.4.6-1.4,1.4.6,1.4,1.4,1.4M16,34.2c.8,0,1.4-.6,1.4-1.4s-.6-1.4-1.4-1.4-1.4.6-1.4,1.4.6,1.4,1.4,1.4M16,17.4c.8,0,1.4-.6,1.4-1.4s-.6-1.4-1.4-1.4-1.4.6-1.4,1.4.6,1.4,1.4,1.4M7.7,42.5c.8,0,1.4-.6,1.4-1.4s-.6-1.4-1.4-1.4-1.4.6-1.4,1.4c0,.8.6,1.4,1.4,1.4M7.7,25.8c.8,0,1.4-.6,1.4-1.4s-.6-1.4-1.4-1.4-1.4.6-1.4,1.4c0,.8.6,1.4,1.4,1.4M7.7,33.5c.2,0,.5,0,.7,0v-1.5h-.7c-4.2,0-7.7-3.4-7.7-7.7s3.4-7.7,7.7-7.7.5,0,.7,0v-.8c0-4.3,3.4-7.7,7.7-7.7s2.9.5,4.2,1.3c1.2-.8,2.7-1.3,4.2-1.3,4.3,0,7.7,3.4,7.7,7.7s-3.4,7.7-7.7,7.7-3-.4-4.2-1.2c-1.3.8-2.7,1.2-4.2,1.2h-.8c.1.2.1.5.1.7,0,.3,0,.5-.1.8.3,0,.5,0,.8,0,1.5,0,2.9.5,4.2,1.3,1.2-.8,2.7-1.3,4.2-1.3,4.3,0,7.7,3.4,7.7,7.7s-3.4,7.7-7.7,7.7h-.8c.1.2.1.5.1.7,0,4.3-3.4,7.7-7.7,7.7s-3-.5-4.2-1.2c-1.3.7-2.7,1.2-4.2,1.2C3.5,48.9,0,45.5,0,41.2c0-4.3,3.4-7.7,7.7-7.7"/>
    <path class="cls-1" d="M67.3,42.5c.8,0,1.4-.6,1.4-1.4s-.6-1.4-1.4-1.4-1.4.6-1.4,1.4.6,1.4,1.4,1.4M67.3,34.2c.8,0,1.4-.6,1.4-1.4s-.6-1.4-1.4-1.4-1.4.6-1.4,1.4.6,1.4,1.4,1.4M67.3,25.8c.8,0,1.4-.6,1.4-1.4s-.6-1.4-1.4-1.4-1.4.6-1.4,1.4.6,1.4,1.4,1.4M67.3,17.4c.8,0,1.4-.6,1.4-1.4s-.6-1.4-1.4-1.4-1.4.6-1.4,1.4.6,1.4,1.4,1.4M58.9,42.5c.8,0,1.4-.6,1.4-1.4s-.6-1.4-1.4-1.4-1.4.6-1.4,1.4.7,1.4,1.4,1.4M50.6,42.5c.8,0,1.4-.6,1.4-1.4s-.6-1.4-1.4-1.4-1.4.6-1.4,1.4.6,1.4,1.4,1.4M42.2,34.2c.8,0,1.4-.6,1.4-1.4s-.6-1.4-1.4-1.4-1.4.6-1.4,1.4.6,1.4,1.4,1.4M42.2,25.8c.8,0,1.4-.6,1.4-1.4s-.6-1.4-1.4-1.4-1.4.6-1.4,1.4.6,1.4,1.4,1.4M42.2,17.4c.8,0,1.4-.6,1.4-1.4s-.6-1.4-1.4-1.4-1.4.6-1.4,1.4.6,1.4,1.4,1.4M60.8,20.2c-.8-1.2-1.2-2.7-1.2-4.2,0-4.3,3.4-7.7,7.7-7.7s7.7,3.4,7.7,7.7-.5,3-1.3,4.2c.8,1.3,1.3,2.7,1.3,4.2s-.5,3-1.3,4.2c.8,1.3,1.3,2.7,1.3,4.2s-.5,3-1.3,4.2c.8,1.3,1.3,2.7,1.3,4.2,0,4.2-3.4,7.7-7.7,7.7s-3-.5-4.2-1.2c-1.3.7-2.7,1.2-4.2,1.2s-3-.5-4.2-1.2c-1.3.7-2.7,1.2-4.2,1.2-4.2,0-7.7-3.4-7.7-7.7v-.7h-.7c-4.2,0-7.7-3.4-7.7-7.7s.5-2.9,1.2-4.2c-.7-1.2-1.2-2.7-1.2-4.2s.5-2.9,1.2-4.2c-.7-1.2-1.2-2.7-1.2-4.2,0-4.3,3.4-7.7,7.7-7.7s7.7,3.4,7.7,7.7-.5,3-1.3,4.2c.8,1.3,1.3,2.7,1.3,4.2s-.5,3-1.3,4.2c.8,1.3,1.3,2.7,1.3,4.2s0,.5,0,.8c.3,0,.5,0,.8,0,1.5,0,2.9.5,4.2,1.3,1.2-.8,2.7-1.3,4.2-1.3s.5,0,.7,0v-.8c0-1.5.4-2.9,1.2-4.2-.8-1.2-1.2-2.7-1.2-4.2,0-1.5.4-2.9,1.2-4.2"/>
    <path class="cls-1" d="M101.8,17.4c.8,0,1.4-.6,1.4-1.4s-.6-1.4-1.4-1.4-1.4.6-1.4,1.4.7,1.4,1.4,1.4M93.5,17.4c.8,0,1.4-.6,1.4-1.4s-.6-1.4-1.4-1.4-1.4.6-1.4,1.4.6,1.4,1.4,1.4M85.1,42.5c.8,0,1.4-.6,1.4-1.4s-.6-1.4-1.4-1.4-1.4.6-1.4,1.4.6,1.4,1.4,1.4M85.1,34.2c.8,0,1.4-.6,1.4-1.4s-.6-1.4-1.4-1.4-1.4.6-1.4,1.4.6,1.4,1.4,1.4M85.1,25.8c.8,0,1.4-.6,1.4-1.4s-.6-1.4-1.4-1.4-1.4.6-1.4,1.4.6,1.4,1.4,1.4M93.5,8.4c1.5,0,2.9.5,4.2,1.3,1.2-.8,2.7-1.3,4.2-1.3,4.2,0,7.7,3.4,7.7,7.7s-3.4,7.7-7.7,7.7-3-.4-4.2-1.2c-1.3.8-2.7,1.2-4.2,1.2h-.8c0,.2,0,.5,0,.7,0,1.5-.5,3-1.3,4.2.8,1.3,1.3,2.7,1.3,4.2s-.5,3-1.3,4.2c.8,1.3,1.3,2.7,1.3,4.2,0,4.2-3.4,7.7-7.7,7.7s-7.7-3.4-7.7-7.7.5-2.9,1.2-4.2c-.7-1.2-1.2-2.7-1.2-4.2s.5-2.9,1.2-4.2c-.7-1.2-1.2-2.7-1.2-4.2,0-4.2,3.4-7.7,7.7-7.7s.5,0,.7,0v-.8c0-4.3,3.4-7.7,7.7-7.7"/>
    <path class="cls-1" d="M144.7,25.8c.8,0,1.4-.6,1.4-1.4s-.6-1.4-1.4-1.4-1.4.6-1.4,1.4.6,1.4,1.4,1.4M136.4,34.2c.8,0,1.4-.6,1.4-1.4s-.6-1.4-1.4-1.4-1.4.6-1.4,1.4.6,1.4,1.4,1.4M136.4,17.4c.8,0,1.4-.6,1.4-1.4s-.6-1.4-1.4-1.4-1.4.6-1.4,1.4.6,1.4,1.4,1.4M128,17.4c.8,0,1.4-.6,1.4-1.4s-.6-1.4-1.4-1.4-1.4.6-1.4,1.4c0,.8.6,1.4,1.4,1.4M119.6,50.9c.8,0,1.4-.6,1.4-1.4s-.6-1.4-1.4-1.4-1.4.6-1.4,1.4.7,1.4,1.4,1.4M119.6,42.5c.8,0,1.4-.6,1.4-1.4s-.6-1.4-1.4-1.4-1.4.6-1.4,1.4.7,1.4,1.4,1.4M119.6,34.2c.8,0,1.4-.6,1.4-1.4s-.6-1.4-1.4-1.4-1.4.6-1.4,1.4.7,1.4,1.4,1.4M119.6,25.8c.8,0,1.4-.6,1.4-1.4s-.6-1.4-1.4-1.4-1.4.6-1.4,1.4.7,1.4,1.4,1.4M119.6,17.4c.8,0,1.4-.6,1.4-1.4s-.6-1.4-1.4-1.4-1.4.6-1.4,1.4.7,1.4,1.4,1.4M136.4,25.1c.2,0,.5,0,.7,0v-1.5h-.7c-1.5,0-3-.4-4.2-1.2-1.3.8-2.7,1.2-4.2,1.2h-.8c0,.2,0,.5,0,.7,0,1.5-.5,3-1.3,4.2.8,1.3,1.3,2.7,1.3,4.2s-.5,3-1.3,4.2c.8,1.3,1.3,2.7,1.3,4.2s-.5,3-1.3,4.2c.8,1.3,1.3,2.7,1.3,4.2,0,4.2-3.4,7.7-7.7,7.7s-7.7-3.4-7.7-7.7.5-2.9,1.2-4.2c-.7-1.2-1.2-2.7-1.2-4.2s.5-2.9,1.2-4.2c-.7-1.2-1.2-2.7-1.2-4.2s.5-2.9,1.2-4.2c-.7-1.2-1.2-2.7-1.2-4.2s.5-2.9,1.2-4.2c-.7-1.2-1.2-2.7-1.2-4.2,0-4.3,3.4-7.7,7.7-7.7s2.9.5,4.2,1.3c1.2-.8,2.7-1.3,4.2-1.3s2.9.5,4.2,1.3c1.2-.8,2.7-1.3,4.2-1.3,4.2,0,7.7,3.4,7.7,7.7s0,.5-.1.8c.3,0,.5,0,.8,0,4.2,0,7.7,3.4,7.7,7.7s-3.4,7.7-7.7,7.7h-.8c.1.2.1.5.1.7,0,4.3-3.4,7.7-7.7,7.7s-7.7-3.4-7.7-7.7c0-4.3,3.4-7.7,7.7-7.7"/>
    <path class="cls-1" d="M170.5,42.5c.8,0,1.4-.6,1.4-1.4s-.6-1.4-1.4-1.4-1.4.6-1.4,1.4.7,1.4,1.4,1.4M162.2,34.2c.8,0,1.4-.6,1.4-1.4s-.6-1.4-1.4-1.4-1.4.6-1.4,1.4.6,1.4,1.4,1.4M162.2,25.8c.8,0,1.4-.6,1.4-1.4s-.6-1.4-1.4-1.4-1.4.6-1.4,1.4.6,1.4,1.4,1.4M162.2,17.4c.8,0,1.4-.6,1.4-1.4s-.6-1.4-1.4-1.4-1.4.6-1.4,1.4.6,1.4,1.4,1.4M162.2,9.1c.8,0,1.4-.6,1.4-1.4s-.6-1.4-1.4-1.4-1.4.6-1.4,1.4.6,1.4,1.4,1.4M162.2,0c4.2,0,7.7,3.4,7.7,7.7s-.5,3-1.3,4.2c.8,1.3,1.3,2.7,1.3,4.2s-.5,3-1.3,4.2c.8,1.3,1.3,2.7,1.3,4.2s-.5,3-1.3,4.2c.8,1.3,1.3,2.7,1.3,4.2s0,.5-.1.8c.3,0,.5,0,.8,0,4.2,0,7.7,3.4,7.7,7.7s-3.4,7.7-7.7,7.7-7.7-3.4-7.7-7.7v-.7h-.7c-4.2,0-7.7-3.4-7.7-7.7s.5-2.9,1.2-4.2c-.7-1.2-1.2-2.7-1.2-4.2s.5-2.9,1.2-4.2c-.7-1.2-1.2-2.7-1.2-4.2s.5-2.9,1.2-4.2c-.7-1.2-1.2-2.7-1.2-4.2,0-4.3,3.4-7.7,7.7-7.7"/>
    <path class="cls-1" d="M210.2,42.5c.8,0,1.4-.6,1.4-1.4s-.6-1.4-1.4-1.4-1.4.6-1.4,1.4.6,1.4,1.4,1.4M210.2,34.2c.8,0,1.4-.6,1.4-1.4s-.6-1.4-1.4-1.4-1.4.6-1.4,1.4.6,1.4,1.4,1.4M210.2,25.8c.8,0,1.4-.6,1.4-1.4s-.6-1.4-1.4-1.4-1.4.6-1.4,1.4.6,1.4,1.4,1.4M210.2,17.4c.8,0,1.4-.6,1.4-1.4s-.6-1.4-1.4-1.4-1.4.6-1.4,1.4.6,1.4,1.4,1.4M201.8,42.5c.8,0,1.4-.6,1.4-1.4s-.6-1.4-1.4-1.4-1.4.6-1.4,1.4.6,1.4,1.4,1.4M193.4,42.5c.8,0,1.4-.6,1.4-1.4s-.6-1.4-1.4-1.4-1.4.6-1.4,1.4.7,1.4,1.4,1.4M185.1,34.2c.8,0,1.4-.6,1.4-1.4s-.6-1.4-1.4-1.4-1.4.6-1.4,1.4c0,.7.6,1.4,1.4,1.4M185.1,25.8c.8,0,1.4-.6,1.4-1.4s-.6-1.4-1.4-1.4-1.4.6-1.4,1.4.6,1.4,1.4,1.4M185.1,17.4c.8,0,1.4-.6,1.4-1.4s-.6-1.4-1.4-1.4-1.4.6-1.4,1.4c0,.8.6,1.4,1.4,1.4M203.7,20.2c-.8-1.2-1.2-2.7-1.2-4.2,0-4.3,3.4-7.7,7.7-7.7s7.7,3.4,7.7,7.7-.5,3-1.3,4.2c.8,1.3,1.3,2.7,1.3,4.2s-.5,3-1.3,4.2c.8,1.3,1.3,2.7,1.3,4.2s-.5,3-1.3,4.2c.8,1.3,1.3,2.7,1.3,4.2,0,4.2-3.4,7.7-7.7,7.7s-3-.5-4.2-1.2c-1.3.7-2.7,1.2-4.2,1.2s-3-.5-4.2-1.2c-1.3.7-2.7,1.2-4.2,1.2-4.2,0-7.7-3.4-7.7-7.7v-.7h-.7c-4.2,0-7.7-3.4-7.7-7.7s.5-2.9,1.2-4.2c-.7-1.2-1.2-2.7-1.2-4.2s.5-2.9,1.2-4.2c-.7-1.2-1.2-2.7-1.2-4.2,0-4.3,3.4-7.7,7.7-7.7s7.7,3.4,7.7,7.7-.5,3-1.3,4.2c.8,1.3,1.3,2.7,1.3,4.2s-.5,3-1.3,4.2c.8,1.3,1.3,2.7,1.3,4.2s0,.5-.1.8c.3,0,.5,0,.8,0,1.5,0,2.9.5,4.2,1.3,1.2-.8,2.7-1.3,4.2-1.3s.5,0,.7,0v-.8c0-1.5.4-2.9,1.2-4.2-.8-1.2-1.2-2.7-1.2-4.2s.4-2.9,1.2-4.2"/>
    <path class="cls-1" d="M244.3,34.2c.8,0,1.4-.6,1.4-1.4s-.6-1.4-1.4-1.4-1.4.6-1.4,1.4c0,.7.7,1.4,1.4,1.4M244.3,17.4c.8,0,1.4-.6,1.4-1.4s-.6-1.4-1.4-1.4-1.4.6-1.4,1.4c0,.8.7,1.4,1.4,1.4M236,42.5c.8,0,1.4-.6,1.4-1.4s-.6-1.4-1.4-1.4-1.4.6-1.4,1.4.6,1.4,1.4,1.4M236,34.2c.8,0,1.4-.6,1.4-1.4s-.6-1.4-1.4-1.4-1.4.6-1.4,1.4.6,1.4,1.4,1.4M236,17.4c.8,0,1.4-.6,1.4-1.4s-.6-1.4-1.4-1.4-1.4.6-1.4,1.4.6,1.4,1.4,1.4M227.6,42.5c.8,0,1.4-.6,1.4-1.4s-.6-1.4-1.4-1.4-1.4.6-1.4,1.4.7,1.4,1.4,1.4M227.6,25.8c.8,0,1.4-.6,1.4-1.4s-.6-1.4-1.4-1.4-1.4.6-1.4,1.4.7,1.4,1.4,1.4M227.6,33.5c.2,0,.5,0,.7,0v-1.5h-.7c-4.2,0-7.7-3.4-7.7-7.7s3.4-7.7,7.7-7.7.5,0,.7,0v-.8c0-4.3,3.4-7.7,7.7-7.7s2.9.5,4.2,1.3c1.2-.8,2.7-1.3,4.2-1.3,4.2,0,7.7,3.4,7.7,7.7s-3.4,7.7-7.7,7.7-3-.4-4.2-1.2c-1.3.8-2.7,1.2-4.2,1.2h-.8c.1.2.1.5.1.7,0,.3,0,.5-.1.8.3,0,.5,0,.8,0,1.5,0,2.9.5,4.2,1.3,1.2-.8,2.7-1.3,4.2-1.3,4.2,0,7.7,3.4,7.7,7.7s-3.4,7.7-7.7,7.7h-.8c.1.2.1.5.1.7,0,4.3-3.4,7.7-7.7,7.7s-3-.5-4.2-1.2c-1.3.7-2.7,1.2-4.2,1.2-4.2,0-7.7-3.4-7.7-7.7,0-4.3,3.5-7.7,7.7-7.7"/>
  </g>
  <circle class="cls-1" cx="3" cy="70.3" r="3"/>
  <circle class="cls-1" cx="13.7" cy="70.3" r="3"/>
  <circle class="cls-1" cx="24.4" cy="70.3" r="3"/>
  <circle class="cls-1" cx="35.1" cy="70.3" r="3"/>
  <circle class="cls-1" cx="45.8" cy="70.3" r="3"/>
  <circle class="cls-1" cx="56.5" cy="70.3" r="3"/>
  <circle class="cls-1" cx="67.2" cy="70.3" r="3"/>
  <circle class="cls-1" cx="77.9" cy="70.3" r="3"/>
  <circle class="cls-1" cx="88.6" cy="70.3" r="3"/>
  <circle class="cls-1" cx="99.3" cy="70.3" r="3"/>
  <circle class="cls-1" cx="110" cy="70.3" r="3"/>
  <circle class="cls-1" cx="120.7" cy="70.3" r="3"/>
  <circle class="cls-1" cx="131.3" cy="70.3" r="3"/>
  <circle class="cls-1" cx="142" cy="70.3" r="3"/>
  <circle class="cls-1" cx="152.7" cy="70.3" r="3"/>
  <circle class="cls-1" cx="163.4" cy="70.3" r="3"/>
  <circle class="cls-1" cx="174.1" cy="70.3" r="3"/>
  <circle class="cls-1" cx="184.8" cy="70.3" r="3"/>
  <circle class="cls-1" cx="195.5" cy="70.3" r="3"/>
  <circle class="cls-1" cx="206.2" cy="70.3" r="3"/>
  <circle class="cls-1" cx="227.6" cy="70.3" r="3"/>
  <circle class="cls-1" cx="249" cy="70.3" r="3"/>
  <circle class="cls-1" cx="238.3" cy="70.3" r="3"/>
  <circle class="cls-1" cx="216.9" cy="70.3" r="3"/>
</svg>